<svg width="471" height="144" viewBox="0 0 471 144" fill="none" xmlns="http://www.w3.org/2000/svg">
<path d="M232.804 128.103C230.373 130.092 227.39 131.583 223.854 132.578C220.429 133.572 216.783 134.069 212.915 134.069C203.192 134.069 195.679 131.528 190.375 126.445C185.071 121.363 182.419 113.96 182.419 104.236V61.6416H167.834V45.0677H182.419V24.8477H203.137V45.0677H226.837V61.6416H203.137V103.739C203.137 108.048 204.186 111.363 206.286 113.683C208.385 115.893 211.424 116.998 215.401 116.998C220.042 116.998 223.909 115.783 227.003 113.352L232.804 128.103Z" fill="#282828"/>
<path d="M317.704 89.154C317.704 90.5905 317.592 92.6346 317.371 95.2864H247.928C249.142 101.805 252.293 106.999 257.375 110.866C262.567 114.622 268.977 116.501 276.599 116.501C286.324 116.501 294.334 113.297 300.632 106.888L311.738 119.65C307.758 124.401 302.733 127.992 296.655 130.423C290.577 132.854 283.727 134.069 276.103 134.069C266.38 134.069 257.817 132.136 250.414 128.268C243.011 124.401 237.265 119.042 233.177 112.192C229.199 105.231 227.21 97.3856 227.21 88.6567C227.21 80.0383 229.144 72.304 233.011 65.4536C236.989 58.4924 242.458 53.0783 249.418 49.2111C256.38 45.344 264.225 43.4102 272.955 43.4102C281.572 43.4102 289.251 45.344 295.992 49.2111C302.842 52.9678 308.145 58.3268 311.902 65.2877C315.77 72.1382 317.704 80.0937 317.704 89.154ZM272.955 59.9841C266.326 59.9841 260.69 61.973 256.049 65.9506C251.518 69.8178 248.755 75.011 247.762 81.5302H297.981C297.097 75.1214 294.391 69.9285 289.86 65.9506C285.329 61.973 279.695 59.9841 272.955 59.9841Z" fill="#282828"/>
<path d="M325.174 9.93164H345.89V132.909H325.174V9.93164Z" fill="#282828"/>
<path d="M360.65 9.93164H381.369V132.909H360.65V9.93164Z" fill="#282828"/>
<path d="M429.939 43.4102C442.979 43.4102 452.922 46.5593 459.772 52.8573C466.734 59.0448 470.215 68.4369 470.215 81.0329V132.909H450.658V122.136C448.116 126.003 444.471 128.986 439.719 131.086C435.079 133.075 429.443 134.069 422.814 134.069C416.185 134.069 410.383 132.964 405.412 130.754C400.439 128.434 396.571 125.285 393.81 121.307C391.159 117.219 389.833 112.634 389.833 107.551C389.833 99.5955 392.76 93.2424 398.617 88.4911C404.583 83.6294 413.918 81.1985 426.625 81.1985H449.498V79.8727C449.498 73.6852 447.619 68.9339 443.863 65.6192C440.215 62.3045 434.746 60.647 427.454 60.647C422.481 60.647 417.565 61.4206 412.704 62.9673C407.952 64.5144 403.92 66.6689 400.605 69.4312L392.484 54.3489C397.125 50.8132 402.703 48.1063 409.223 46.2278C415.743 44.3494 422.647 43.4102 429.939 43.4102ZM427.124 118.987C432.315 118.987 436.901 117.827 440.878 115.506C444.967 113.076 447.84 109.65 449.498 105.231V94.955H428.117C416.185 94.955 410.219 98.8772 410.219 106.722C410.219 110.479 411.708 113.462 414.693 115.672C417.677 117.882 421.818 118.987 427.124 118.987Z" fill="#282828"/>
<path fill-rule="evenodd" clip-rule="evenodd" d="M139.68 0H4.32C1.93413 0 0 1.93413 0 4.32V139.68C0 142.066 1.93413 144 4.32 144H139.68C142.066 144 144 142.066 144 139.68V4.32C144 1.93413 142.066 0 139.68 0ZM117.964 76.7168H80.4414C78.3847 76.7168 76.7173 78.3842 76.7173 80.4409V117.963C76.7173 120.02 78.3847 121.688 80.4414 121.688H117.964C120.021 121.688 121.688 120.02 121.688 117.963V80.4409C121.688 78.3842 120.021 76.7168 117.964 76.7168ZM26.4336 77.0418C24.6162 76.1182 22.3446 77.273 22.3448 79.1201L22.3483 119.285C22.3484 121.132 24.6202 122.286 26.4374 121.362L65.9527 101.278C67.7698 100.354 67.7696 98.045 65.9522 97.1214L26.4336 77.0418ZM44.8301 67.3164C57.2484 67.3164 67.3155 57.2493 67.3155 44.8311C67.3155 32.4128 57.2484 22.3457 44.8301 22.3457C32.4119 22.3457 22.3448 32.4128 22.3448 44.8311C22.3448 57.2493 32.4119 67.3164 44.8301 67.3164ZM118.315 22.3457H80.0901C78.2273 22.3457 76.7173 23.8558 76.7173 25.7185V30.2156C76.7173 32.0784 78.2273 33.5884 80.0901 33.5884H93.5812V63.9436C93.5812 65.8064 95.0914 67.3164 96.954 67.3164H101.451C103.314 67.3164 104.824 65.8064 104.824 63.9436V33.5884H118.315C120.178 33.5884 121.688 32.0784 121.688 30.2156V25.7185C121.688 23.8558 120.178 22.3457 118.315 22.3457Z" fill="#282828"/>
</svg>
