<svg width="651" height="166" viewBox="0 0 651 166" fill="none" xmlns="http://www.w3.org/2000/svg">
<path d="M208.379 130.054L216.479 111.232C225.231 117.768 236.859 121.166 248.356 121.166C256.848 121.166 262.204 117.898 262.204 112.932C262.073 99.0764 211.383 109.925 210.991 75.1567C210.861 57.511 226.538 43.9174 248.748 43.9174C261.943 43.9174 275.138 47.185 284.545 54.6354L276.967 73.8496C268.345 68.3598 257.631 64.4387 247.441 64.4387C240.516 64.4387 235.944 67.7063 235.944 71.8889C236.075 85.4827 287.157 78.0323 287.68 111.232C287.68 129.27 272.395 141.948 250.446 141.948C234.376 141.948 219.614 138.158 208.379 130.054ZM519.181 104.435C515.132 111.494 507.554 116.33 498.801 116.33C485.867 116.33 475.416 105.873 475.416 92.9331C475.416 79.993 485.867 69.5362 498.801 69.5362C507.554 69.5362 515.132 74.3725 519.181 81.4307L541.521 69.0135C533.161 54.1127 517.091 43.9174 498.801 43.9174C471.757 43.9174 449.81 65.8764 449.81 92.9331C449.81 119.99 471.757 141.948 498.801 141.948C517.222 141.948 533.161 131.885 541.521 116.852L519.181 104.435ZM298.915 3.26695H326.873V140.119H298.915V3.26695ZM552.496 3.26695V140.119H580.454V99.0764L613.637 140.119H649.434L607.237 91.3646L646.299 45.878H612.07L580.454 83.6528V3.26695H552.496ZM409.963 104.697C405.913 111.363 397.551 116.33 388.145 116.33C375.211 116.33 364.759 105.873 364.759 92.9331C364.759 79.993 375.211 69.5362 388.145 69.5362C397.551 69.5362 405.913 74.7646 409.963 81.5614V104.697ZM409.963 45.878V56.9883C405.39 49.2764 394.024 43.9174 382.136 43.9174C357.574 43.9174 338.239 65.615 338.239 92.8024C338.239 119.99 357.574 141.948 382.136 141.948C394.024 141.948 405.39 136.59 409.963 128.878V139.989H437.921V45.878H409.963Z" fill="#282828"/>
<path d="M35.5355 104.565C35.5355 114.107 27.8274 121.819 18.2905 121.819C8.75335 121.819 1.04532 114.107 1.04532 104.565C1.04532 95.0235 8.75335 87.3116 18.2905 87.3116H35.5355V104.565ZM44.1581 104.565C44.1581 95.0235 51.866 87.3116 61.4031 87.3116C70.9401 87.3116 78.6482 95.0235 78.6482 104.565V147.698C78.6482 157.241 70.9401 164.952 61.4031 164.952C51.866 164.952 44.1581 157.241 44.1581 147.698V104.565Z" fill="#282828"/>
<path d="M61.4032 35.2906C51.8661 35.2906 44.1582 27.5788 44.1582 18.037C44.1582 8.49533 51.8661 0.783524 61.4032 0.783524C70.9403 0.783524 78.6483 8.49533 78.6483 18.037V35.2906H61.4032ZM61.4032 44.0481C70.9403 44.0481 78.6483 51.7599 78.6483 61.3016C78.6483 70.8434 70.9403 78.5552 61.4032 78.5552H18.1599C8.62282 78.5552 0.914795 70.8434 0.914795 61.3016C0.914795 51.7599 8.62282 44.0481 18.1599 44.0481H61.4032Z" fill="#282828"/>
<path d="M130.515 61.3016C130.515 51.7599 138.223 44.0481 147.76 44.0481C157.297 44.0481 165.005 51.7599 165.005 61.3016C165.005 70.8434 157.297 78.5552 147.76 78.5552H130.515V61.3016ZM121.891 61.3016C121.891 70.8434 114.184 78.5552 104.647 78.5552C95.1096 78.5552 87.4016 70.8434 87.4016 61.3016V18.037C87.4016 8.49533 95.1096 0.783524 104.647 0.783524C114.184 0.783524 121.891 8.49533 121.891 18.037V61.3016Z" fill="#282828"/>
<path d="M104.647 130.446C114.184 130.446 121.891 138.157 121.891 147.698C121.891 157.241 114.184 164.952 104.647 164.952C95.1096 164.952 87.4016 157.241 87.4016 147.698V130.446H104.647ZM104.647 121.819C95.1096 121.819 87.4016 114.107 87.4016 104.565C87.4016 95.0235 95.1096 87.3116 104.647 87.3116H147.89C157.427 87.3116 165.135 95.0235 165.135 104.565C165.135 114.107 157.427 121.819 147.89 121.819H104.647Z" fill="#282828"/>
</svg>
