<svg width="197" height="163" viewBox="0 0 197 163" fill="none" xmlns="http://www.w3.org/2000/svg">
<path d="M12.8124 56.9519H6.72456C5.77955 56.9517 4.84515 56.7525 3.98231 56.3672C3.11947 55.9819 2.34757 55.4191 1.71689 54.7155C1.0862 54.0119 0.610893 53.1833 0.321985 52.2837C0.0330779 51.3841 -0.0629523 50.4338 0.0401393 49.4946L0.095717 48.9889C0.311672 47.0207 1.19599 45.1861 2.6012 43.791C4.00643 42.3958 5.84759 41.5245 7.81762 41.3223L11.6952 40.926C12.5601 40.8372 13.3662 40.4471 13.9725 39.824C14.5787 39.2009 14.9465 38.3846 15.0115 37.5177L15.2691 34.1115C15.9248 28.7195 17.37 25.6688 19.608 21.2122C21.8459 16.7556 24.7121 12.9585 28.2043 9.82075C31.7004 6.68486 35.7669 4.26393 40.4059 2.55984C45.0451 0.852045 50.0954 0 55.5533 0C58.2823 0 61.4763 0.357488 65.1335 1.07432C66.145 1.27066 67.4067 1.60962 68.9221 2.08751C69.9292 2.40553 70.8566 2.93494 71.6423 3.64031C72.4282 4.34568 73.0542 5.21072 73.4784 6.17755C73.9027 7.14437 74.1156 8.19066 74.1027 9.24638C74.0899 10.3021 73.8516 11.3429 73.4038 12.2991L73.2055 12.7195C72.3098 14.633 70.7865 16.1826 68.8886 17.1115C66.9908 18.0404 64.8324 18.2926 62.7713 17.8263C62.4935 17.7633 62.2415 17.7096 62.0228 17.6633C59.8923 17.2224 57.9007 17.0038 56.0443 17.0038C50.6957 17.0038 46.3549 18.7357 43.0257 22.2032C39.6964 25.6688 37.6492 30.2642 36.886 35.9878L27.3651 115.226C27.0098 118.184 25.5828 120.909 23.3539 122.886C21.125 124.863 18.2487 125.955 15.2691 125.955C13.9139 125.955 12.574 125.667 11.3381 125.112C10.1023 124.556 8.99846 123.744 8.09963 122.73C7.2008 121.716 6.52744 120.523 6.12401 119.229C5.72057 117.935 5.59625 116.571 5.7593 115.226L12.8124 56.9537V56.9519ZM64.7667 48.4332L64.4499 50.943C64.223 52.7327 63.3509 54.3779 61.9971 55.5705C60.6433 56.763 58.901 57.4208 57.0966 57.4205H44.5653C43.8955 57.4203 43.2375 57.2437 42.6577 56.9086C42.078 56.5735 41.5967 56.0915 41.2624 55.5112C40.9281 54.931 40.7525 54.273 40.7534 53.6035C40.7543 52.9338 40.9316 52.2762 41.2674 51.6969C43.5583 47.7077 46.9506 44.4632 51.0384 42.3523C53.0949 41.2835 55.4107 40.75 57.9952 40.75C58.964 40.7502 59.9217 40.9566 60.8046 41.3554C61.6875 41.7543 62.4755 42.3363 63.116 43.0631C63.7564 43.7898 64.2349 44.6446 64.5195 45.5705C64.8042 46.4964 64.8884 47.4723 64.7667 48.4332ZM77.3574 146.628C80.2049 146.628 82.7246 145.985 84.9163 144.701C87.1062 143.417 89.1885 141.545 91.1597 139.083C93.131 136.622 95.0485 133.573 96.9104 129.934C99.0326 125.753 101.059 121.527 102.989 117.255L132.385 50.6653C133.744 47.5881 136.004 44.995 138.867 43.2285C141.73 41.462 145.061 40.6049 148.421 40.7704C149.665 40.8314 150.873 41.2006 151.937 41.8448C153.001 42.4889 153.888 43.3877 154.518 44.4601C155.149 45.5325 155.502 46.7448 155.546 47.9878C155.592 49.2308 155.327 50.4654 154.775 51.5802L120.241 121.427C116.629 128.383 113.313 134.457 110.301 139.645C107.289 144.835 104.114 149.143 100.771 152.566C97.431 155.991 93.7331 158.587 89.6813 160.351C85.6276 162.116 80.807 163 75.2213 163C72.8562 162.875 70.4985 162.634 68.157 162.278C67.2241 162.139 66.337 161.782 65.5678 161.236C64.7985 160.691 64.1688 159.972 63.7297 159.138C63.2907 158.302 63.0545 157.377 63.0406 156.434C63.0266 155.491 63.2353 154.558 63.6496 153.711L65.0057 150.936C65.706 149.504 66.8178 148.314 68.1987 147.517C69.5797 146.722 71.1669 146.356 72.7572 146.467C74.2912 146.574 75.8234 146.628 77.3574 146.628ZM105.003 78.4196C105.668 81.9316 105.779 85.7103 105.336 89.7537C104.897 93.7761 104.119 97.754 103.009 101.645C101.94 105.428 100.55 109.112 98.8557 112.659C98.506 113.387 97.9409 113.989 97.2372 114.384C96.5334 114.78 95.7249 114.949 94.9215 114.87C94.1181 114.79 93.3585 114.466 92.7459 113.94C92.1333 113.414 91.6973 112.713 91.4969 111.931L76.357 52.8194C75.9912 51.3912 75.9569 49.8983 76.2567 48.4548C76.5565 47.0112 77.1823 45.6554 78.0865 44.4907C78.9908 43.3262 80.1493 42.3837 81.4737 41.7354C82.7981 41.087 84.2532 40.75 85.7277 40.75C89.2241 40.7499 92.6095 41.9775 95.2926 44.2187C97.9758 46.4599 99.7864 49.5721 100.408 53.012L105.003 78.4196ZM159.364 114.033L166.739 51.7673C167.099 48.7312 168.561 45.9328 170.847 43.9022C173.134 41.8716 176.085 40.75 179.143 40.75C180.536 40.7498 181.913 41.0445 183.183 41.6149C184.454 42.1854 185.59 43.0185 186.515 44.0594C187.44 45.1003 188.134 46.3254 188.552 47.654C188.968 48.9825 189.1 50.3844 188.935 51.7673L181.558 114.033C181.198 117.069 179.736 119.868 177.451 121.898C175.165 123.929 172.213 125.05 169.155 125.05C167.762 125.05 166.386 124.756 165.115 124.186C163.845 123.614 162.71 122.781 161.785 121.741C160.86 120.699 160.166 119.474 159.748 118.147C159.331 116.818 159.2 115.416 159.364 114.033ZM170.547 13.1215C171.068 9.47623 172.718 6.37923 175.49 3.8268C178.261 1.27807 181.477 0 185.136 0C186.915 0 188.536 0.338965 190 1.01505C191.44 1.67436 192.723 2.63288 193.764 3.8268C194.81 5.02521 195.543 6.40516 195.962 7.96662C196.38 9.52994 196.484 11.247 196.277 13.1215C195.858 16.7668 194.262 19.8138 191.491 22.2606C188.717 24.7075 185.502 25.9318 181.84 25.9318C178.18 25.9318 175.278 24.7093 173.132 22.2606C170.989 19.8138 170.125 16.7668 170.544 13.1215H170.547Z" fill="#282828"/>
<path d="M12.8124 56.9519H6.72456C5.77955 56.9517 4.84515 56.7525 3.98231 56.3672C3.11947 55.9819 2.34757 55.4191 1.71689 54.7155C1.0862 54.0119 0.610893 53.1833 0.321985 52.2837C0.0330779 51.3841 -0.0629523 50.4338 0.0401393 49.4946L0.095717 48.9889C0.311672 47.0207 1.19599 45.1861 2.6012 43.791C4.00643 42.3958 5.84759 41.5245 7.81762 41.3223L11.6952 40.926C12.5601 40.8372 13.3662 40.4471 13.9725 39.824C14.5787 39.2009 14.9465 38.3846 15.0115 37.5177L15.2691 34.1115C15.9248 28.7195 17.37 25.6688 19.608 21.2122C21.8459 16.7556 24.7121 12.9585 28.2043 9.82075C31.7004 6.68486 35.7669 4.26393 40.4059 2.55984C45.0451 0.852045 50.0954 0 55.5533 0C58.2823 0 61.4763 0.357488 65.1335 1.07432C66.145 1.27066 67.4067 1.60962 68.9221 2.08751C69.9292 2.40553 70.8566 2.93494 71.6423 3.64031C72.4282 4.34568 73.0542 5.21072 73.4784 6.17755C73.9027 7.14437 74.1156 8.19066 74.1027 9.24638C74.0899 10.3021 73.8516 11.3429 73.4038 12.2991L73.2055 12.7195C72.3098 14.633 70.7865 16.1826 68.8886 17.1115C66.9908 18.0404 64.8324 18.2926 62.7713 17.8263C62.4935 17.7633 62.2415 17.7096 62.0228 17.6633C59.8923 17.2224 57.9007 17.0038 56.0443 17.0038C50.6957 17.0038 46.3549 18.7357 43.0257 22.2032C39.6964 25.6688 37.6492 30.2642 36.886 35.9878L27.3651 115.226C27.0098 118.184 25.5828 120.909 23.3539 122.886C21.125 124.863 18.2487 125.955 15.2691 125.955C13.9139 125.955 12.574 125.667 11.3381 125.112C10.1023 124.556 8.99846 123.744 8.09963 122.73C7.2008 121.716 6.52744 120.523 6.12401 119.229C5.72057 117.935 5.59625 116.571 5.7593 115.226L12.8124 56.9537V56.9519ZM64.7667 48.4332L64.4499 50.943C64.223 52.7327 63.3509 54.3779 61.9971 55.5705C60.6433 56.763 58.901 57.4208 57.0966 57.4205H44.5653C43.8955 57.4203 43.2375 57.2437 42.6577 56.9086C42.078 56.5735 41.5967 56.0915 41.2624 55.5112C40.9281 54.931 40.7525 54.273 40.7534 53.6035C40.7543 52.9338 40.9316 52.2762 41.2674 51.6969C43.5583 47.7077 46.9506 44.4632 51.0384 42.3523C53.0949 41.2835 55.4107 40.75 57.9952 40.75C58.964 40.7502 59.9217 40.9566 60.8046 41.3554C61.6875 41.7543 62.4755 42.3363 63.116 43.0631C63.7564 43.7898 64.2349 44.6446 64.5195 45.5705C64.8042 46.4964 64.8884 47.4723 64.7667 48.4332ZM77.3574 146.628C80.2049 146.628 82.7246 145.985 84.9163 144.701C87.1062 143.417 89.1885 141.545 91.1597 139.083C93.131 136.622 95.0485 133.573 96.9104 129.934C99.0326 125.753 101.059 121.527 102.989 117.255L132.385 50.6653C133.744 47.5881 136.004 44.995 138.867 43.2285C141.73 41.462 145.061 40.6049 148.421 40.7704C149.665 40.8314 150.873 41.2006 151.937 41.8448C153.001 42.4889 153.888 43.3877 154.518 44.4601C155.149 45.5325 155.502 46.7448 155.546 47.9878C155.592 49.2308 155.327 50.4654 154.775 51.5802L120.241 121.427C116.629 128.383 113.313 134.457 110.301 139.645C107.289 144.835 104.114 149.143 100.771 152.566C97.431 155.991 93.7331 158.587 89.6813 160.351C85.6276 162.116 80.807 163 75.2213 163C72.8562 162.875 70.4985 162.634 68.157 162.278C67.2241 162.139 66.337 161.782 65.5678 161.236C64.7985 160.691 64.1688 159.972 63.7297 159.138C63.2907 158.302 63.0545 157.377 63.0406 156.434C63.0266 155.491 63.2353 154.558 63.6496 153.711L65.0057 150.936C65.706 149.504 66.8178 148.314 68.1987 147.517C69.5797 146.722 71.1669 146.356 72.7572 146.467C74.2912 146.574 75.8234 146.628 77.3574 146.628ZM105.003 78.4196C105.668 81.9316 105.779 85.7103 105.336 89.7537C104.897 93.7761 104.119 97.754 103.009 101.645C101.94 105.428 100.55 109.112 98.8557 112.659C98.506 113.387 97.9409 113.989 97.2372 114.384C96.5334 114.78 95.7249 114.949 94.9215 114.87C94.1181 114.79 93.3585 114.466 92.7459 113.94C92.1333 113.414 91.6973 112.713 91.4969 111.931L76.357 52.8194C75.9912 51.3912 75.9569 49.8983 76.2567 48.4548C76.5565 47.0112 77.1823 45.6554 78.0865 44.4907C78.9908 43.3262 80.1493 42.3837 81.4737 41.7354C82.7981 41.087 84.2532 40.75 85.7277 40.75C89.2241 40.7499 92.6095 41.9775 95.2926 44.2187C97.9758 46.4599 99.7864 49.5721 100.408 53.012L105.003 78.4196ZM159.364 114.033L166.739 51.7673C167.099 48.7312 168.561 45.9328 170.847 43.9022C173.134 41.8716 176.085 40.75 179.143 40.75C180.536 40.7498 181.913 41.0445 183.183 41.6149C184.454 42.1854 185.59 43.0185 186.515 44.0594C187.44 45.1003 188.134 46.3254 188.552 47.654C188.968 48.9825 189.1 50.3844 188.935 51.7673L181.558 114.033C181.198 117.069 179.736 119.868 177.451 121.898C175.165 123.929 172.213 125.05 169.155 125.05C167.762 125.05 166.386 124.756 165.115 124.186C163.845 123.614 162.71 122.781 161.785 121.741C160.86 120.699 160.166 119.474 159.748 118.147C159.331 116.818 159.2 115.416 159.364 114.033ZM170.547 13.1215C171.068 9.47623 172.718 6.37923 175.49 3.8268C178.261 1.27807 181.477 0 185.136 0C186.915 0 188.536 0.338965 190 1.01505C191.44 1.67436 192.723 2.63288 193.764 3.8268C194.81 5.02521 195.543 6.40516 195.962 7.96662C196.38 9.52994 196.484 11.247 196.277 13.1215C195.858 16.7668 194.262 19.8138 191.491 22.2606C188.717 24.7075 185.502 25.9318 181.84 25.9318C178.18 25.9318 175.278 24.7093 173.132 22.2606C170.989 19.8138 170.125 16.7668 170.544 13.1215H170.547Z" fill="#282828"/>
</svg>
