<svg width="711" height="181" viewBox="0 0 711 181" fill="none" xmlns="http://www.w3.org/2000/svg">
<path d="M268.021 46.5988C268.021 45.6402 268.659 45.0009 269.617 45.0009H316.57C336.373 45.0009 346.913 54.2692 346.913 69.2903C346.913 79.1978 340.206 85.2701 333.179 87.5073C341.483 90.0641 348.83 97.4148 348.83 109.24C348.83 124.9 338.289 135.128 317.209 135.128H269.617C268.659 135.128 268.021 134.488 268.021 133.529V46.5988ZM284.949 59.7023V81.7546H314.654C324.555 81.7546 329.346 77.9194 329.346 70.5686C329.346 62.8984 324.236 59.3828 314.654 59.3828H284.949V59.7023ZM284.949 96.1364V121.065H315.292C326.471 121.065 331.582 116.591 331.582 108.601C331.582 100.291 326.152 96.1364 315.292 96.1364H284.949ZM369.91 90.3837C369.91 63.2179 390.352 43.7226 417.182 43.7226C444.012 43.7226 464.454 63.2179 464.454 90.3837C464.454 117.23 444.012 137.045 417.182 137.045C390.032 137.045 369.91 117.549 369.91 90.3837ZM447.206 90.3837C447.206 73.1255 435.388 59.3828 417.501 59.3828C399.615 59.3828 387.796 73.445 387.796 90.3837C387.796 107.962 399.615 121.385 417.501 121.385C435.069 121.704 447.206 107.642 447.206 90.3837ZM486.173 90.3837C486.173 63.2179 506.615 43.7226 533.445 43.7226C560.274 43.7226 580.716 63.2179 580.716 90.3837C580.716 117.23 560.274 137.045 533.445 137.045C506.296 137.045 486.173 117.549 486.173 90.3837ZM563.469 90.3837C563.469 73.1255 551.651 59.3828 533.765 59.3828C515.878 59.3828 504.06 73.445 504.06 90.3837C504.06 107.962 515.878 121.385 533.765 121.385C551.332 121.704 563.469 107.642 563.469 90.3837ZM658.97 111.158L685.801 46.2793C686.12 45.6402 686.439 45.3205 687.078 45.3205H709.117C710.075 45.3205 710.714 45.9597 710.714 46.9185V134.169C710.714 135.128 710.075 135.766 709.117 135.766H695.383C694.425 135.766 693.785 135.128 693.785 134.169V61.6199L663.761 135.128C663.442 135.766 663.123 136.086 662.484 136.086H652.902C652.263 136.086 651.624 135.766 651.624 135.128L621.92 62.2591V134.169C621.92 135.128 621.281 135.766 620.322 135.766H607.547C606.589 135.766 605.949 135.128 605.949 134.169V46.9185C605.949 45.9597 606.589 45.3205 607.547 45.3205H630.544C631.182 45.3205 631.821 45.6402 631.821 46.2793L658.97 111.158ZM199.349 90.7032C199.03 88.1465 196.794 86.5485 194.239 86.8682L142.495 93.8993L195.835 71.5274C198.39 70.5686 199.668 67.3727 198.709 64.816C197.752 62.2591 194.558 60.9808 192.003 61.9396L150.48 79.5174L190.725 48.5164C193.28 46.5988 193.599 43.0833 191.682 40.5265C189.767 37.9698 186.253 37.6501 183.698 39.5677L150.16 65.4551L179.226 27.1035C181.143 24.5467 180.823 20.7116 177.948 18.4743C175.393 16.5567 171.561 16.8764 169.325 19.7528L145.369 51.3928L163.256 9.20601C164.534 6.01004 163.256 2.49448 160.062 0.896489C156.868 -0.381899 153.355 0.896489 151.757 4.09246L116.942 85.5897C113.748 92.9405 106.083 98.054 97.4589 98.054C89.1544 98.054 82.4469 93.2601 78.9334 85.9094L41.5632 1.21609C41.2438 0.257295 39.9661 -0.381899 39.0079 0.257295C38.0497 0.576892 37.4109 1.85528 38.0498 2.81407L71.2677 77.5999L24.9542 17.8352C23.996 16.8764 22.399 16.5567 21.4408 17.5155C20.4826 18.4743 20.1631 20.0723 21.1213 21.0311L67.4348 80.7958L12.4974 38.9286C11.2198 37.9698 9.30341 38.2894 8.34519 39.5677C7.38699 40.8462 7.70639 42.7638 8.984 43.7226L66.1573 87.5073L5.47057 62.8984C3.55413 62.2591 1.63771 62.8984 0.679505 64.816C0.0406973 66.7336 0.679505 68.651 2.59593 69.6098L66.1573 95.4972L4.51235 87.5073C2.27652 87.1877 0.360101 88.7858 0.0406973 91.0229C-0.278706 93.2601 1.31831 95.1777 3.55413 95.4972L68.393 103.807L10.2616 111.797C7.70639 112.116 6.10937 114.354 6.42877 116.91C6.74818 119.467 8.984 121.065 11.5392 120.745L71.9066 112.436L21.7601 133.529C19.2049 134.488 17.9272 137.684 18.8855 140.241C19.8437 142.798 23.0378 144.076 25.593 143.117L78.9334 120.745L38.6886 152.066C36.1334 153.983 35.8139 157.499 37.7304 160.056C39.6468 162.612 43.1602 162.933 45.7154 161.015L87.5574 128.735L59.7692 165.17C57.8528 167.727 58.1722 171.562 61.0468 173.799C63.6021 175.716 67.435 175.397 69.6707 172.521L95.5424 138.323L81.1693 172.2C79.8917 175.397 81.1693 178.912 84.3633 180.51C87.5574 181.788 91.0708 180.51 92.6678 177.315L103.847 150.788L116.304 179.231C116.623 180.191 117.901 180.83 118.859 180.191C119.817 179.871 120.456 178.593 119.817 177.634L105.763 145.674L109.916 136.086L138.023 172.521C138.982 173.478 140.578 173.799 141.537 172.84C142.495 171.881 142.814 170.283 141.856 169.324L111.832 130.653L114.068 124.9L159.103 159.417C160.382 160.376 162.298 160.056 163.256 158.777C164.215 157.499 163.894 155.582 162.617 154.623L116.304 119.147L117.262 116.91L176.671 141.2C178.588 141.839 180.504 141.2 181.462 139.282C182.101 137.364 181.462 135.447 179.545 134.488L122.692 111.477L188.808 120.106C191.044 120.426 192.961 118.828 193.28 116.591C193.599 114.354 192.003 112.436 189.767 112.116L133.87 105.085L195.196 96.7757C197.752 95.4972 199.668 93.2601 199.349 90.7032Z" fill="#282828"/>
</svg>
