<svg width="558" height="153" viewBox="0 0 558 153" fill="none" xmlns="http://www.w3.org/2000/svg">
<path d="M506.964 2.49169C504.11 3.29934 502.391 5.41298 502.391 7.90467C502.391 10.7572 503.938 12.5444 506.259 12.5444C507.668 12.5444 508.665 12.0289 509.353 11.0321C510.333 9.5887 510.814 7.76719 511.553 5.87695C512.928 2.44014 514.407 0.773282 517.295 0.773282C520.87 0.773282 523.225 3.35089 523.225 7.30322C523.225 10.7401 521.335 13.1973 517.793 14.2284L517.158 11.9945C519.804 11.2727 521.179 9.53715 521.179 7.04547C521.179 4.63969 519.77 3.14468 517.57 3.14468C516.487 3.14468 515.627 3.66021 514.87 4.58814C514.132 5.53327 513.633 7.20013 512.842 9.31376C511.399 13.1287 509.886 14.8986 506.448 14.8986C502.787 14.8986 500.311 12.235 500.311 8.02496C500.311 4.07263 502.305 1.39191 506.242 0.17184L506.998 2.49169H506.964ZM500.276 26.2916C500.276 20.8959 504.35 17.7683 511.759 17.7683C519.082 17.7683 523.225 21.0849 523.225 26.1198C523.225 30.244 520.99 32.8216 516.607 33.7667L516.022 31.464C519.358 30.7767 521.145 28.9551 521.145 26.3432C521.145 22.5627 517.879 20.26 511.69 20.26C505.674 20.26 502.408 22.5798 502.408 26.4119C502.408 29.2989 504.299 31.2922 507.806 31.9108L507.324 34.1447C502.615 33.0621 500.276 30.4673 500.276 26.3088V26.2916ZM522.847 37.8565V40.2623H513.358V51.4319H522.847V53.8376H500.638V51.4319H511.21V40.2623H500.621V37.8565H522.83H522.847ZM523.208 66.3992C523.208 71.6403 518.876 75.1631 511.759 75.1631C504.642 75.1631 500.294 71.6403 500.294 66.3992C500.294 61.1409 504.678 57.6353 511.776 57.6353C518.893 57.601 523.242 61.1409 523.242 66.3992H523.208ZM502.408 66.3992C502.408 70.2657 505.778 72.6886 511.759 72.6886C517.776 72.6886 521.11 70.2828 521.11 66.3992C521.11 62.5156 517.776 60.0927 511.776 60.0927C505.812 60.0927 502.459 62.4985 502.459 66.3992H502.408ZM523.208 87.295C523.208 92.5362 518.876 96.0589 511.759 96.0589C504.642 96.0589 500.294 92.5362 500.294 87.295C500.294 82.0367 504.678 78.4968 511.776 78.4968C518.893 78.4968 523.242 82.0367 523.242 87.2607L523.208 87.295ZM502.408 87.295C502.408 91.1614 505.778 93.5844 511.759 93.5844C517.776 93.5844 521.11 91.1786 521.11 87.2779C521.11 83.3942 517.776 80.9713 511.776 80.9713C505.812 80.9713 502.459 83.377 502.459 87.2607L502.408 87.295ZM522.847 99.994V102.486H502.735V112.401H500.638V100.011H522.847V99.994ZM523.208 127.265C523.208 132.523 518.876 136.029 511.759 136.029C504.642 136.029 500.294 132.523 500.294 127.265C500.294 122.007 504.678 118.502 511.776 118.502C518.893 118.502 523.242 122.007 523.242 127.265H523.208ZM502.408 127.265C502.408 131.132 505.778 133.554 511.759 133.554C517.776 133.554 521.11 131.149 521.11 127.265C521.11 123.399 517.776 120.976 511.776 120.976C505.812 120.976 502.459 123.382 502.459 127.265H502.408ZM522.847 139.981V152.989H520.784V142.422H513.358V150.258H511.261V142.422H500.638V139.981H522.847ZM536.806 14.5549C534.914 13.1802 534.02 11.2899 534.02 8.67795C534.02 3.40244 538.249 0 545.366 0C552.757 0 556.952 3.26497 556.952 8.76387C556.952 12.6818 554.769 15.2594 550.42 16.4967L549.955 13.9706C553.169 13.1115 554.837 11.3587 554.837 8.67795C554.837 4.77717 551.571 2.49169 545.555 2.49169C539.504 2.49169 536.135 4.93183 536.135 8.8498C536.135 12.0632 538.077 14.2113 541.463 14.2113H543.011V9.10755H545.143V16.7545H534.364V14.6408L536.771 14.5549H536.806ZM556.574 22.6143V28.8349C556.574 34.8493 554.957 37.719 550.729 37.719C547.806 37.719 545.915 36.1725 545.057 33.1137L534.398 38.3377V35.6398L544.455 30.7595V25.0372H534.381V22.6314H556.557L556.574 22.6143ZM554.511 25.02H546.5V28.7489C546.5 33.2168 547.618 35.2273 550.506 35.2273C553.772 35.2273 554.528 33.2856 554.528 28.8349V25.0544L554.511 25.02ZM556.574 48.3388V52.0849L534.398 58.9241V56.3465L541.275 54.3531V46.1048L534.398 44.1287V41.5167L556.574 48.356V48.3388ZM543.337 53.6658L554.923 50.3321V49.9884L543.337 46.6376V53.6315V53.6658ZM556.574 62.9624V68.2379C556.574 71.228 556.229 73.3931 554.854 75.2833C552.963 77.6891 549.732 79.0982 545.486 79.0982C538.129 79.0982 534.381 75.2833 534.381 67.7052V62.9624H556.557H556.574ZM554.511 65.3682H536.564V67.3443C536.564 70.1625 536.84 72.2074 538.112 73.7884C539.538 75.627 542.066 76.6581 545.469 76.6581C549.027 76.6581 551.606 75.6614 553.084 73.7368C554.374 72.0871 554.528 70.1969 554.528 67.6708V65.351L554.511 65.3682ZM556.574 85.9719H542.272C540.897 85.9719 539.693 85.9719 538.661 86.5389C537.08 87.3465 536.135 89.1166 536.135 91.5223C536.135 93.9281 537.063 95.7324 538.627 96.5057C539.796 97.1071 541.086 97.1071 542.649 97.1071H556.539V99.5472H541.841C536.684 99.5472 533.986 96.7635 533.986 91.5395C533.986 86.2812 536.65 83.5489 541.841 83.5489H556.539V86.0062L556.574 85.9719ZM556.574 109.6V113.346L534.398 120.168V117.59L541.275 115.58V107.332L534.398 105.355V102.778L556.574 109.617V109.6ZM543.337 114.927L554.923 111.593V111.25L543.337 107.916V114.909V114.927ZM554.459 126.853V120.375H556.574V135.84H554.459V129.361H534.347V126.853H554.459ZM556.574 139.878V152.989H554.511V142.336H547.084V149.896H545.021V142.336H536.495V152.989H534.381V139.878H556.557H556.574Z" fill="#282828"/>
<path d="M113.385 83.1188C124.214 83.8749 124.214 88.6177 124.214 97.1582V121.284C124.214 130.289 124.214 135.204 121.205 139.843C116.616 147.01 107.626 149.466 100.526 149.466C91.2093 149.466 85.5194 145.291 83.0613 141.098C80.3969 136.63 80.3968 130.96 80.3968 120.752V98.4642C80.3968 83.1188 80.7407 83.1188 91.3296 83.1188V80.7647H58.9267V83.1188H60.5426C69.997 83.1188 70.1001 84.3217 70.1001 98.6704V120.426C70.1001 132.42 70.1001 137.352 73.6412 142.593C76.426 146.682 83.3879 152.989 98.0852 152.989C111.597 152.989 120.26 147.662 124.042 140.789C126.792 135.633 126.792 131.027 126.792 121.715V98.1205C126.792 89.3567 126.792 83.8578 137.21 83.1188V80.7647H113.385V83.1188ZM193.18 83.1188H194.692C204.009 83.1188 204.232 84.0984 204.232 98.447V133.262C204.232 147.01 204.232 149.346 195.243 149.346H193.18V151.701H225.582V149.329H223.52C214.529 149.329 214.529 146.975 214.529 133.245V98.4642C214.529 83.9781 214.735 83.1188 224.052 83.1188H225.565V80.7647H193.18V83.1188ZM163.991 108.844C155.739 105.2 146.939 101.334 146.939 92.8622C146.939 88.1538 150.153 82.0363 159.144 82.0363C167.119 82.0363 176.075 88.0851 177.932 97.8112H180.304V80.7647H178.07C177.829 82.0535 177.107 85.4387 175.267 86.9853C172.689 84.1842 168.185 79.4758 158.851 79.4758C147.059 79.4758 140.114 87.8273 140.114 97.0551C140.114 110.562 151.804 115.614 159.711 119.016C160.364 119.24 163.888 120.735 164.524 121.078C171.744 124.171 179.015 128.244 179.015 136.596C179.015 143.125 173.755 150.412 163.252 150.412C148.056 150.412 143.398 135.857 142.16 129.619H139.547V151.735H141.885C142.676 147.095 144.034 145.067 144.687 144.105C146.405 146.03 152.508 152.989 164.198 152.989C177.812 152.989 186.492 144.535 186.492 132.541C186.492 119.016 177.795 114.943 163.973 108.827L163.991 108.844ZM406.54 108.844C398.254 105.2 389.47 101.334 389.47 92.8622C389.47 88.1538 392.684 82.0363 401.675 82.0363C409.651 82.0363 418.607 88.0851 420.463 97.8112H422.818V80.7647H420.583C420.343 82.0535 419.621 85.4387 417.765 86.9853C415.186 84.1842 410.717 79.4758 401.366 79.4758C389.556 79.4758 382.595 87.8273 382.595 97.0551C382.595 110.562 394.283 115.614 402.19 119.016C402.878 119.24 406.384 120.735 407.038 121.078C414.223 124.171 421.512 128.244 421.512 136.596C421.512 143.125 416.252 150.412 405.749 150.412C390.536 150.412 385.895 135.857 384.656 129.619H382.044V151.735H384.399C385.19 147.095 386.548 145.067 387.201 144.105C388.92 146.03 395.023 152.989 406.712 152.989C420.343 152.989 429.024 144.535 429.024 132.541C429.024 119.016 420.343 114.943 406.506 108.827L406.54 108.844ZM462.166 108.844C453.914 105.2 445.114 101.334 445.114 92.8622C445.114 88.1538 448.328 82.0363 457.319 82.0363C465.294 82.0363 474.25 88.0851 476.107 97.8112H478.462V80.7647H476.227C475.987 82.0535 475.265 85.4387 473.425 86.9853C470.847 84.1842 466.377 79.4758 457.026 79.4758C445.234 79.4758 438.289 87.8273 438.289 97.0551C438.289 110.562 449.979 115.614 457.885 119.016C458.539 119.24 462.063 120.735 462.699 121.078C469.919 124.171 477.19 128.244 477.19 136.596C477.19 143.125 471.913 150.412 461.41 150.412C446.214 150.412 441.556 135.857 440.317 129.619H437.739V151.735H440.06C440.851 147.095 442.226 145.067 442.862 144.105C444.58 146.03 450.683 152.989 462.373 152.989C475.987 152.989 484.667 144.535 484.667 132.541C484.667 119.016 475.987 114.943 462.148 108.827L462.166 108.844ZM283.082 83.1188C295.201 83.2391 295.201 88.7037 295.201 93.8417V135.358H294.995L253.207 80.7647H232.303V83.1188C241.311 83.1188 242.79 83.1188 242.79 98.447V136.046C242.79 142.696 242.79 144.414 241.208 146.013C238.285 148.814 233.473 149.106 231.34 149.346V151.701H257.813V149.329C251.057 149.209 248.496 147.267 247.843 146.648C245.694 144.827 245.385 143.435 245.385 136.029V86.8821H245.591L295.235 151.718H297.814V94.5807C297.814 88.9099 297.814 84.0984 308.849 83.1016V80.7647H283.116V83.1188H283.082ZM349.039 149.363H343.797C334.033 149.363 333.38 148.505 333.38 132.213V115.374H341.115C349.246 115.374 351.601 115.923 351.601 126.646H354.076V102.313H351.601C351.601 110.562 350.965 113.019 340.994 113.019H333.38V83.1188H343.762C356.173 83.1188 361.348 83.5656 364.304 97.8112H366.745V80.7647H313.886V83.1188C322.997 83.1188 323.083 84.4077 323.083 98.447V133.262C323.083 146.975 323.083 149.346 313.869 149.346H312.46V151.701H371.215V129.636H368.756C365.25 149.432 356.156 149.346 349.022 149.346L349.039 149.363ZM34.0359 113.673V113.448C38.299 112.933 54.062 110.562 54.062 96.9521C54.062 80.0085 31.6465 80.7302 25.0113 80.7302C22.003 80.7302 0 80.7647 0 80.7647V83.1188C10.6577 83.1188 10.9671 83.1188 10.9671 98.6704V133.279C10.9671 146.992 10.9671 149.363 1.95964 149.363H0V151.718H27.1599C33.2623 151.718 43.3183 151.718 49.3349 147.937C54.698 144.621 57.9298 138.726 57.9298 132.402C57.9298 119.858 47.4096 114.531 34.0359 113.673ZM21.2466 83.1361C21.2466 83.1361 25.8191 83.0673 27.8132 83.1361C38.127 83.3079 43.0089 86.6072 43.0089 97.4847C43.0089 110.991 34.5516 112.813 21.2466 112.487V83.1361ZM29.8415 149.243C21.2466 149.243 21.2466 147.216 21.2466 130.924V115.046C31.9731 114.394 37.9724 116.215 40.9806 118.364C44.9342 121.25 46.447 125.752 46.447 132.076C46.447 135.823 46.5501 149.209 29.8244 149.209L29.8415 149.243Z" fill="#282828"/>
<path d="M80.9641 48.3215V3.26497H90.8139C98.6009 3.26497 102.744 3.26497 104.961 16.4624H106.886V1.16852H45.8281V16.4624H47.9596C48.7332 11.9429 49.8506 7.99058 51.3976 6.06597C53.6323 3.26497 55.9701 3.26497 62.6054 3.26497H71.716V48.2872C71.716 60.6254 71.8363 62.7561 63.6368 62.7561H60.3707V64.8699H92.2407V62.7561H89.0433C80.9641 62.7561 80.9641 60.6425 80.9641 48.3215ZM320.246 0C302.92 0 285.867 10.8776 285.867 32.5294C285.867 53.7002 301.166 66.0383 320.539 66.0383C341.717 66.0383 355.297 52.3598 355.297 32.9074C355.314 10.1042 337.557 0 320.246 0ZM320.934 63.7184C304.174 63.7184 296.663 52.7207 296.663 32.9246C296.663 19.5211 300.701 2.33703 320.556 2.33703C342.594 2.33703 344.502 23.7828 344.502 33.0106C344.502 43.8022 341.837 63.7357 320.951 63.7357L320.934 63.7184ZM471.81 8.47174C465.93 3.48837 458.453 1.15134 444.477 1.15134C439.097 1.15134 416.166 1.15134 416.166 1.15134V3.26497H417.988C426.463 3.26497 426.652 4.63969 426.652 17.5277V48.3215C426.652 57.0855 426.411 61.0893 423.214 62.4641C421.495 63.0655 420.051 62.9796 419.123 62.7733C415.203 62.0001 411.783 59.1647 404.167 48.8886C403.686 48.3215 401.366 45.2284 400.901 44.5583C399.732 43.0117 393.767 35.0383 389.624 32.9246V32.7184C399.732 31.6874 407.846 26.3603 407.846 16.7372C407.846 12.6131 406.299 8.95289 402.432 5.77385C398.804 2.801 393.201 1.16852 380.205 1.16852C377.506 1.16852 356.62 1.16852 356.62 1.16852V3.26497C366.075 3.26497 366.333 3.26497 366.333 17.0465V48.3215C366.333 60.6425 366.333 62.7561 358.15 62.7561H356.139V64.8699H386.651V62.7561H383.556C375.478 62.7561 375.581 60.6425 375.581 48.3215V34.1962H378.09C379.122 34.1962 381.064 34.076 382.612 35.6225C384.536 37.5472 388.8 42.4446 392.633 48.1325C395.212 51.999 401.778 61.433 406.591 64.887H444.185C453.605 64.887 464.005 64.9901 472.376 57.8415C481.041 50.5554 482.175 39.0078 482.175 33.612C482.21 26.4807 480.559 15.9124 471.81 8.48893V8.47174ZM380.875 31.8421H375.581V3.71176C376.818 3.71176 377.764 3.71176 379.5 3.71176C388.061 3.71176 397.498 3.57428 397.498 17.459C397.498 26.8758 393.269 31.8936 380.824 31.8936L380.875 31.8421ZM462.75 58.3055C457.456 62.4641 450.425 62.6531 445.905 62.6531C435.797 62.6531 435.9 62.275 435.9 45.5206V3.26497C435.9 3.26497 440.42 3.23061 443.687 3.23061C448.723 3.23061 459.33 2.71508 465.948 12.1319C470.967 19.2461 471.913 28.1991 471.913 34.265C471.913 41.8604 470.468 52.3598 462.768 58.3226L462.75 58.3055ZM21.9514 26.3947C14.5598 23.1298 6.65247 19.6586 6.65247 12.046C6.65247 7.81875 9.52317 2.33703 17.6196 2.33703C24.7705 2.33703 32.8154 7.75001 34.4656 16.4967H36.5799V1.13414H34.5516C34.3797 2.28548 33.7265 5.34425 32.0591 6.71896C29.7384 4.22728 25.6988 0 17.3273 0C6.73842 0 0.481316 7.50943 0.481316 15.8094C0.481316 27.9069 10.9671 32.4435 18.1009 35.5195C18.6853 35.6913 21.8483 37.0661 22.4328 37.3409C28.8789 40.142 35.4282 43.785 35.4282 51.2944C35.4282 57.1713 30.7354 63.7184 21.2982 63.7184C7.64948 63.7184 3.45516 50.6586 2.355 45.0566H0V64.8699H2.20029C2.78475 60.9519 4.03961 58.9069 4.60688 58.0306C6.15396 59.7489 11.6548 66.0212 22.1405 66.0212C34.3797 66.0212 42.1666 58.4258 42.1666 47.6342C42.1666 35.5195 34.3625 31.8593 21.9514 26.3775V26.3947ZM209.544 3.26497C220.425 3.36807 220.425 7.0111 220.425 12.888V50.3493H220.254L182.659 1.16852H163.905V3.26497C171.984 3.26497 173.359 3.26497 173.359 17.0122V50.8132C173.359 56.7933 173.29 58.7179 171.898 60.2301C169.75 62.5328 166.467 63.2717 163.716 62.7218C159.899 61.7423 158.731 59.4224 157.064 55.4357C156.961 55.0577 156.582 54.1813 156.101 53.2018L133.788 0.206209H131.949L113.453 44.5067C112.971 45.5378 111.425 49.3183 111.132 50.0056C108.038 58.0821 106.611 61.7252 99.873 62.7906V64.9042H118.834V62.7906C113.332 62.7906 111.906 59.4224 111.906 56.8105C111.906 54.1298 113.539 50.4524 115.172 46.4314C115.378 45.9501 115.465 45.5721 115.568 45.469L117.2 41.4136H141.473L146.285 53.1503C146.457 53.5627 147.317 55.4874 147.437 55.8654C148.125 57.3088 148.468 58.3743 148.468 59.3366C148.468 62.8078 145.116 62.8078 140.596 62.8078V64.9214H186.802V62.8078C180.734 62.7046 178.43 60.969 177.863 60.402C175.921 58.7695 175.629 57.515 175.629 50.8648V6.65023H175.801L220.425 64.8699H222.711V13.5755C222.711 8.47174 222.883 3.09313 232.613 3.09313C242.342 3.09313 242.531 8.47174 242.531 13.5755V48.2872C242.531 60.6082 242.531 62.7218 234.452 62.7218H232.51V64.8354H262.076V62.7218H259.962C251.779 62.7218 251.779 60.6082 251.779 48.2872V32.4091H257.744C263.521 32.4091 267.37 32.4091 267.37 42.9945H269.692V20.5865H267.37C267.37 29.5222 264.276 30.2783 257.744 30.2783H251.779V3.26497H264.19C270.379 3.26497 274.281 3.26497 277.358 7.69846C279.936 11.3414 280.073 14.091 280.315 16.4624H282.584V1.16852H209.527V3.26497H209.544ZM118.163 39.2655L129.336 12.1147L140.596 39.2655H118.146H118.163Z" fill="#282828"/>
</svg>
