<svg width="378" height="145" viewBox="0 0 378 145" fill="none" xmlns="http://www.w3.org/2000/svg">
<path d="M93.7008 58.8924L104.007 81.6588L150.067 22.7724L139.897 0.00195312L93.7008 58.8924Z" fill="#282828"/>
<path d="M106.12 144.266L28.6522 137.655L18.8914 116.023L96.5103 122.641L106.12 144.269V144.266ZM0 74.3872L9.84223 95.9665L87.2221 102.603L77.5776 81.0103L0 74.3872Z" fill="#282828"/>
<path d="M96.5103 122.641L106.12 144.269L154.363 84.1854L144.005 61.6548L96.5103 122.641Z" fill="#282828"/>
<path d="M196.796 104.317V84.5403H209.751V86.7347H199.254V93.1096H209.542V95.3032H199.257V102.12H209.754V104.315H196.799L196.796 104.317ZM229.147 104.314L217.613 88.5399V104.314H215.152V84.5376H217.672L229.058 99.9853V84.5376H231.518V104.314H229.144H229.147ZM251.984 94.4407C251.984 90.1708 249.286 86.7317 244.394 86.7317H240.094V102.12H244.394C249.197 102.12 251.984 98.6806 251.984 94.4409V94.4407ZM237.633 104.314V84.5376H244.394C250.531 84.5376 254.534 88.8368 254.534 94.4409C254.534 100.075 250.531 104.315 244.394 104.315H237.631L237.633 104.314ZM259.872 96.6348V84.5371H262.333V96.575C262.333 100.193 264.29 102.476 267.936 102.476C271.583 102.476 273.541 100.193 273.541 96.575V84.5371H276.002V96.6046C276.002 101.527 273.304 104.669 267.937 104.669C262.57 104.669 259.872 101.497 259.872 96.6345V96.6348ZM293.707 90.4973C293.707 88.2703 292.105 86.7315 289.763 86.7315H284.575V94.2924H289.763C292.105 94.2924 293.707 92.7205 293.707 90.4973ZM293.559 104.314L288.518 96.4566H284.575V104.314H282.114V84.5376H290.061C293.678 84.5376 296.257 86.8504 296.257 90.4975C296.257 94.0553 293.826 96.012 291.128 96.2497L296.465 104.315H293.559V104.314ZM317.905 94.4407C317.905 89.8156 315.059 86.405 310.64 86.405C306.193 86.405 303.376 89.8153 303.376 94.4407C303.376 99.0359 306.193 102.476 310.64 102.476C315.058 102.476 317.905 99.0362 317.905 94.4407ZM300.826 94.4407C300.826 88.5994 304.769 84.2114 310.641 84.2114C316.482 84.2114 320.455 88.5994 320.455 94.4407C320.455 100.282 316.482 104.67 310.641 104.67C304.77 104.67 300.826 100.282 300.826 94.4407ZM324.61 101.527L326.063 99.6584C327.367 101.111 329.502 102.475 332.29 102.475C335.82 102.475 336.945 100.578 336.945 99.0655C336.945 93.9651 325.232 96.7828 325.232 89.723C325.232 86.464 328.138 84.2378 332.023 84.2378C335.047 84.2378 337.389 85.2459 339.05 86.9944L337.567 88.8039C336.085 87.1725 334.009 86.4311 331.846 86.4311C329.473 86.4311 327.783 87.7062 327.783 89.5741C327.783 94.0216 339.495 91.4717 339.495 98.855C339.495 101.734 337.538 104.666 332.201 104.666C328.761 104.666 326.241 103.362 324.61 101.523V101.527ZM351.802 87.09L347.593 97.7342H355.984L351.802 87.09ZM358.474 104.317L356.725 99.9283H346.88L345.131 104.317H342.314L350.261 84.5403H353.314L361.29 104.317H358.474ZM368.262 104.317V86.7347H362.006V84.5403H377.009V86.7347H370.721V104.317H368.26" fill="#282828"/>
</svg>
