<svg width="212" height="166" viewBox="0 0 212 166" fill="none" xmlns="http://www.w3.org/2000/svg">
<path d="M60.459 129.206C55.7884 129.068 51.2539 130.788 47.849 133.987C44.444 137.187 42.4462 141.605 42.2931 146.275C42.2541 146.651 42.2541 147.031 42.2931 147.407C42.081 152.073 43.7317 156.634 46.8819 160.084C50.0323 163.533 54.4242 165.591 59.0917 165.804H60.459C65.1259 165.952 69.6606 164.241 73.0667 161.048C76.4729 157.854 78.472 153.441 78.625 148.774C78.625 148.306 78.625 147.876 78.625 147.407C78.7298 145.098 78.3766 142.79 77.5859 140.617C76.7952 138.444 75.5824 136.449 74.0176 134.746C72.4527 133.043 70.5665 131.667 68.4675 130.696C66.3685 129.726 64.0983 129.179 61.7873 129.088H60.4981L60.459 129.206ZM60.4981 160.335C57.4444 160.183 54.5712 158.842 52.4919 156.601C50.4124 154.36 49.2914 151.395 49.3678 148.339C49.4443 145.283 50.7122 142.378 52.9011 140.245C55.0901 138.11 58.0265 136.915 61.0841 136.915C64.1417 136.915 67.0782 138.11 69.2671 140.245C71.4559 142.378 72.7239 145.283 72.8005 148.339C72.8769 151.395 71.7558 154.36 69.6764 156.601C67.5969 158.842 64.7239 160.183 61.6701 160.335H60.4981Z" fill="#282828"/>
<path d="M116.363 129.833L106.518 153.58L96.673 129.833H88.2737V165.376H94.5244V139.011L105.424 165.376H107.612L118.472 139.011V165.376H124.762V129.833H116.363Z" fill="#282828"/>
<path d="M26.3928 144.362H7.32834V129.833H1.0777V165.376H7.32834V149.87H26.3928V165.376H32.6043V129.833H26.3928V144.362Z" fill="#282828"/>
<path d="M138.28 165.376H162.619V159.83H144.493V150.026H162.228V144.519H144.493V135.302H162.619V129.833H138.28V165.376Z" fill="#282828"/>
<path d="M181.995 139.206C181.995 136.55 184.339 134.792 188.012 134.792C191.813 134.716 195.497 136.115 198.286 138.698L201.881 134.05C198.222 130.746 193.407 129.02 188.481 129.246C180.667 129.246 175.511 133.776 175.511 139.635C175.511 152.759 196.256 148.111 196.256 155.571C196.256 157.914 194.224 160.415 189.106 160.415C186.998 160.401 184.915 159.962 182.981 159.124C181.048 158.285 179.304 157.063 177.855 155.533L174.417 160.297C176.281 162.21 178.529 163.704 181.015 164.68C183.501 165.657 186.166 166.093 188.833 165.961C198.443 165.961 202.583 160.883 202.583 154.985C202.583 141.705 181.918 145.807 181.918 139.362" fill="#282828"/>
<path d="M52.9984 79.0144C53.1884 73.3875 51.1411 67.9144 47.3046 63.7931C43.468 59.6718 38.1547 57.238 32.5275 57.0242C31.7462 57.0242 30.9258 57.0242 30.1444 57.0242H0.961731V125.26H15.4555V100.926H30.0273C32.8339 101.133 35.6539 100.782 38.324 99.8925C40.994 99.003 43.4612 97.5931 45.5828 95.7443C47.7045 93.8955 49.4385 91.6446 50.6844 89.1215C51.9305 86.5985 52.6638 83.8535 52.8421 81.0454C52.8811 80.3168 52.8811 79.5866 52.8421 78.8581L52.9984 79.0144ZM28.3083 88.1932H15.5726V69.7964H28.3083C29.5165 69.717 30.7285 69.8762 31.8752 70.2649C33.0217 70.6538 34.0807 71.2646 34.9912 72.0626C35.9017 72.8604 36.6461 73.8299 37.1819 74.9155C37.7178 76.001 38.0344 77.1815 38.114 78.3894C38.1935 79.5973 38.0343 80.8092 37.6454 81.9556C37.2565 83.1019 36.6456 84.1606 35.8475 85.071C35.0494 85.9813 34.0799 86.7256 32.9941 87.2614C31.9083 87.7971 30.7276 88.1136 29.5194 88.1932C29.1166 88.2323 28.711 88.2323 28.3083 88.1932Z" fill="#282828"/>
<path d="M88.2752 73.5482V107.881C87.0891 109.684 85.5371 111.217 83.7199 112.381C81.9027 113.545 79.861 114.314 77.7272 114.638C72.5704 114.638 69.9139 111.787 69.9139 105.733V73.5482H56.7485V109.521C56.7485 119.677 62.4522 126.472 72.8048 126.472C78.5106 126.6 84.0669 124.642 88.4315 120.966V125.262H101.831V73.5482H88.2752Z" fill="#282828"/>
<path d="M200.671 80.695C198.452 78.1714 195.707 76.1641 192.629 74.8145C189.552 73.4649 186.215 72.8057 182.855 72.8833C179.503 72.8987 176.185 73.5749 173.093 74.8733C170.002 76.1716 167.197 78.0668 164.837 80.4503C162.48 82.8336 160.614 85.6586 159.348 88.7635C158.083 91.8683 157.442 95.1922 157.463 98.545V99.6777C157.267 103.012 157.73 106.352 158.827 109.507C159.922 112.662 161.629 115.571 163.849 118.065C166.07 120.561 168.76 122.594 171.766 124.05C174.773 125.506 178.037 126.356 181.372 126.55H183.676C191.138 126.868 198.441 124.341 204.108 119.481L198.248 110.536V110.731C194.673 113.857 190.106 115.614 185.356 115.692C182.055 115.922 178.79 114.894 176.216 112.814C173.643 110.734 171.954 107.757 171.488 104.482H207.703V101.357C207.973 93.9754 205.557 86.7458 200.905 81.0075L200.671 80.695ZM194.927 95.0687H171.058C171.265 92.1053 172.591 89.3315 174.767 87.3084C176.944 85.2854 179.807 84.164 182.778 84.1713C185.771 84.0864 188.677 85.1814 190.87 87.2202C193.063 89.259 194.366 92.0779 194.497 95.0687" fill="#282828"/>
<path d="M111.441 53.6653V125.299H124.762V47.4158L111.441 53.6653Z" fill="#282828"/>
<path d="M155.587 113.349C154.323 114.182 152.844 114.63 151.329 114.638C148.712 114.638 146.992 112.568 146.992 109.404V85.2269H156.486V73.5092H146.992V57.8857L133.788 51.7534V112.88C133.788 121.669 138.789 126.472 147.892 126.472C151.717 126.738 155.517 125.661 158.634 123.427L155.587 113.349Z" fill="#282828"/>
<path d="M171.486 48.6266V34.0186H158.164V42.3773L124.761 26.7537L56.7079 58.5866V69.3669L124.761 37.5339L203.246 74.3273V63.5471L171.486 48.6266Z" fill="#282828"/>
<path d="M124.802 26.7566L158.125 42.3802V34.1778H171.447V48.7467L190.121 57.6131V56.832C190.111 42.5156 184.674 28.7353 174.902 18.2705C165.13 7.8058 151.753 1.43537 137.469 0.444258C123.184 -0.546854 109.055 3.9151 97.9309 12.9301C86.8074 21.9451 79.5172 34.8423 77.5308 49.0202L116.129 31.014L124.802 26.7566Z" fill="#282828"/>
<path d="M204.748 44.8861L203.441 48.5609H202.957L201.651 44.8954V48.5609H200.811V43.5523H201.856L203.199 47.2738L204.542 43.5523H205.587V48.5609H204.748V44.8861ZM200.074 44.3078H198.702V48.5609H197.854V44.3078H196.474V43.5523H200.074V44.3078Z" fill="#282828"/>
</svg>
